<?xml version="1.0" encoding="utf-8" standalone="no"?>
<!DOCTYPE svg PUBLIC "-//W3C//DTD SVG 1.1//EN"
  "http://www.w3.org/Graphics/SVG/1.1/DTD/svg11.dtd">
<svg xmlns:xlink="http://www.w3.org/1999/xlink" width="460.8pt" height="345.6pt" viewBox="0 0 460.8 345.6" xmlns="http://www.w3.org/2000/svg" version="1.1">
 <metadata>
  <rdf:RDF xmlns:dc="http://purl.org/dc/elements/1.1/" xmlns:cc="http://creativecommons.org/ns#" xmlns:rdf="http://www.w3.org/1999/02/22-rdf-syntax-ns#">
   <cc:Work>
    <dc:type rdf:resource="http://purl.org/dc/dcmitype/StillImage"/>
    <dc:date>2025-04-25T19:32:24.477775</dc:date>
    <dc:format>image/svg+xml</dc:format>
    <dc:creator>
     <cc:Agent>
      <dc:title>Matplotlib v3.6.3, https://matplotlib.org/</dc:title>
     </cc:Agent>
    </dc:creator>
   </cc:Work>
  </rdf:RDF>
 </metadata>
 <defs>
  <style type="text/css">*{stroke-linejoin: round; stroke-linecap: butt}</style>
 </defs>
 <g id="figure_1">
  <g id="patch_1">
   <path d="M 0 345.6 
L 460.8 345.6 
L 460.8 0 
L 0 0 
z
" style="fill: #ffffff"/>
  </g>
  <g id="axes_1">
   <g id="patch_2">
    <path d="M 57.6 307.584 
L 414.72 307.584 
L 414.72 41.472 
L 57.6 41.472 
z
" style="fill: #ffffff"/>
   </g>
   <g id="matplotlib.axis_1">
    <g id="xtick_1">
     <g id="line2d_1">
      <path d="M 73.832727 307.584 
L 73.832727 41.472 
" clip-path="url(#pe63bb57239)" style="fill: none; stroke: #b0b0b0; stroke-width: 0.8; stroke-linecap: square"/>
     </g>
     <g id="line2d_2">
      <defs>
       <path id="m23ed73d3c9" d="M 0 0 
L 0 3.5 
" style="stroke: #000000; stroke-width: 0.8"/>
      </defs>
      <g>
       <use xlink:href="#m23ed73d3c9" x="73.832727" y="307.584" style="stroke: #000000; stroke-width: 0.8"/>
      </g>
     </g>
     <g id="text_1">
      <!-- 0 -->
      <g transform="translate(70.651477 322.182437) scale(0.1 -0.1)">
       <defs>
        <path id="DejaVuSans-30" d="M 2034 4250 
Q 1547 4250 1301 3770 
Q 1056 3291 1056 2328 
Q 1056 1369 1301 889 
Q 1547 409 2034 409 
Q 2525 409 2770 889 
Q 3016 1369 3016 2328 
Q 3016 3291 2770 3770 
Q 2525 4250 2034 4250 
z
M 2034 4750 
Q 2819 4750 3233 4129 
Q 3647 3509 3647 2328 
Q 3647 1150 3233 529 
Q 2819 -91 2034 -91 
Q 1250 -91 836 529 
Q 422 1150 422 2328 
Q 422 3509 836 4129 
Q 1250 4750 2034 4750 
z
" transform="scale(0.015625)"/>
       </defs>
       <use xlink:href="#DejaVuSans-30"/>
      </g>
     </g>
    </g>
    <g id="xtick_2">
     <g id="line2d_3">
      <path d="M 125.080485 307.584 
L 125.080485 41.472 
" clip-path="url(#pe63bb57239)" style="fill: none; stroke: #b0b0b0; stroke-width: 0.8; stroke-linecap: square"/>
     </g>
     <g id="line2d_4">
      <g>
       <use xlink:href="#m23ed73d3c9" x="125.080485" y="307.584" style="stroke: #000000; stroke-width: 0.8"/>
      </g>
     </g>
     <g id="text_2">
      <!-- 200 -->
      <g transform="translate(115.536735 322.182437) scale(0.1 -0.1)">
       <defs>
        <path id="DejaVuSans-32" d="M 1228 531 
L 3431 531 
L 3431 0 
L 469 0 
L 469 531 
Q 828 903 1448 1529 
Q 2069 2156 2228 2338 
Q 2531 2678 2651 2914 
Q 2772 3150 2772 3378 
Q 2772 3750 2511 3984 
Q 2250 4219 1831 4219 
Q 1534 4219 1204 4116 
Q 875 4013 500 3803 
L 500 4441 
Q 881 4594 1212 4672 
Q 1544 4750 1819 4750 
Q 2544 4750 2975 4387 
Q 3406 4025 3406 3419 
Q 3406 3131 3298 2873 
Q 3191 2616 2906 2266 
Q 2828 2175 2409 1742 
Q 1991 1309 1228 531 
z
" transform="scale(0.015625)"/>
       </defs>
       <use xlink:href="#DejaVuSans-32"/>
       <use xlink:href="#DejaVuSans-30" x="63.623047"/>
       <use xlink:href="#DejaVuSans-30" x="127.246094"/>
      </g>
     </g>
    </g>
    <g id="xtick_3">
     <g id="line2d_5">
      <path d="M 176.328243 307.584 
L 176.328243 41.472 
" clip-path="url(#pe63bb57239)" style="fill: none; stroke: #b0b0b0; stroke-width: 0.8; stroke-linecap: square"/>
     </g>
     <g id="line2d_6">
      <g>
       <use xlink:href="#m23ed73d3c9" x="176.328243" y="307.584" style="stroke: #000000; stroke-width: 0.8"/>
      </g>
     </g>
     <g id="text_3">
      <!-- 400 -->
      <g transform="translate(166.784493 322.182437) scale(0.1 -0.1)">
       <defs>
        <path id="DejaVuSans-34" d="M 2419 4116 
L 825 1625 
L 2419 1625 
L 2419 4116 
z
M 2253 4666 
L 3047 4666 
L 3047 1625 
L 3713 1625 
L 3713 1100 
L 3047 1100 
L 3047 0 
L 2419 0 
L 2419 1100 
L 313 1100 
L 313 1709 
L 2253 4666 
z
" transform="scale(0.015625)"/>
       </defs>
       <use xlink:href="#DejaVuSans-34"/>
       <use xlink:href="#DejaVuSans-30" x="63.623047"/>
       <use xlink:href="#DejaVuSans-30" x="127.246094"/>
      </g>
     </g>
    </g>
    <g id="xtick_4">
     <g id="line2d_7">
      <path d="M 227.576001 307.584 
L 227.576001 41.472 
" clip-path="url(#pe63bb57239)" style="fill: none; stroke: #b0b0b0; stroke-width: 0.8; stroke-linecap: square"/>
     </g>
     <g id="line2d_8">
      <g>
       <use xlink:href="#m23ed73d3c9" x="227.576001" y="307.584" style="stroke: #000000; stroke-width: 0.8"/>
      </g>
     </g>
     <g id="text_4">
      <!-- 600 -->
      <g transform="translate(218.032251 322.182437) scale(0.1 -0.1)">
       <defs>
        <path id="DejaVuSans-36" d="M 2113 2584 
Q 1688 2584 1439 2293 
Q 1191 2003 1191 1497 
Q 1191 994 1439 701 
Q 1688 409 2113 409 
Q 2538 409 2786 701 
Q 3034 994 3034 1497 
Q 3034 2003 2786 2293 
Q 2538 2584 2113 2584 
z
M 3366 4563 
L 3366 3988 
Q 3128 4100 2886 4159 
Q 2644 4219 2406 4219 
Q 1781 4219 1451 3797 
Q 1122 3375 1075 2522 
Q 1259 2794 1537 2939 
Q 1816 3084 2150 3084 
Q 2853 3084 3261 2657 
Q 3669 2231 3669 1497 
Q 3669 778 3244 343 
Q 2819 -91 2113 -91 
Q 1303 -91 875 529 
Q 447 1150 447 2328 
Q 447 3434 972 4092 
Q 1497 4750 2381 4750 
Q 2619 4750 2861 4703 
Q 3103 4656 3366 4563 
z
" transform="scale(0.015625)"/>
       </defs>
       <use xlink:href="#DejaVuSans-36"/>
       <use xlink:href="#DejaVuSans-30" x="63.623047"/>
       <use xlink:href="#DejaVuSans-30" x="127.246094"/>
      </g>
     </g>
    </g>
    <g id="xtick_5">
     <g id="line2d_9">
      <path d="M 278.823758 307.584 
L 278.823758 41.472 
" clip-path="url(#pe63bb57239)" style="fill: none; stroke: #b0b0b0; stroke-width: 0.8; stroke-linecap: square"/>
     </g>
     <g id="line2d_10">
      <g>
       <use xlink:href="#m23ed73d3c9" x="278.823758" y="307.584" style="stroke: #000000; stroke-width: 0.8"/>
      </g>
     </g>
     <g id="text_5">
      <!-- 800 -->
      <g transform="translate(269.280008 322.182437) scale(0.1 -0.1)">
       <defs>
        <path id="DejaVuSans-38" d="M 2034 2216 
Q 1584 2216 1326 1975 
Q 1069 1734 1069 1313 
Q 1069 891 1326 650 
Q 1584 409 2034 409 
Q 2484 409 2743 651 
Q 3003 894 3003 1313 
Q 3003 1734 2745 1975 
Q 2488 2216 2034 2216 
z
M 1403 2484 
Q 997 2584 770 2862 
Q 544 3141 544 3541 
Q 544 4100 942 4425 
Q 1341 4750 2034 4750 
Q 2731 4750 3128 4425 
Q 3525 4100 3525 3541 
Q 3525 3141 3298 2862 
Q 3072 2584 2669 2484 
Q 3125 2378 3379 2068 
Q 3634 1759 3634 1313 
Q 3634 634 3220 271 
Q 2806 -91 2034 -91 
Q 1263 -91 848 271 
Q 434 634 434 1313 
Q 434 1759 690 2068 
Q 947 2378 1403 2484 
z
M 1172 3481 
Q 1172 3119 1398 2916 
Q 1625 2713 2034 2713 
Q 2441 2713 2670 2916 
Q 2900 3119 2900 3481 
Q 2900 3844 2670 4047 
Q 2441 4250 2034 4250 
Q 1625 4250 1398 4047 
Q 1172 3844 1172 3481 
z
" transform="scale(0.015625)"/>
       </defs>
       <use xlink:href="#DejaVuSans-38"/>
       <use xlink:href="#DejaVuSans-30" x="63.623047"/>
       <use xlink:href="#DejaVuSans-30" x="127.246094"/>
      </g>
     </g>
    </g>
    <g id="xtick_6">
     <g id="line2d_11">
      <path d="M 330.071516 307.584 
L 330.071516 41.472 
" clip-path="url(#pe63bb57239)" style="fill: none; stroke: #b0b0b0; stroke-width: 0.8; stroke-linecap: square"/>
     </g>
     <g id="line2d_12">
      <g>
       <use xlink:href="#m23ed73d3c9" x="330.071516" y="307.584" style="stroke: #000000; stroke-width: 0.8"/>
      </g>
     </g>
     <g id="text_6">
      <!-- 1000 -->
      <g transform="translate(317.346516 322.182437) scale(0.1 -0.1)">
       <defs>
        <path id="DejaVuSans-31" d="M 794 531 
L 1825 531 
L 1825 4091 
L 703 3866 
L 703 4441 
L 1819 4666 
L 2450 4666 
L 2450 531 
L 3481 531 
L 3481 0 
L 794 0 
L 794 531 
z
" transform="scale(0.015625)"/>
       </defs>
       <use xlink:href="#DejaVuSans-31"/>
       <use xlink:href="#DejaVuSans-30" x="63.623047"/>
       <use xlink:href="#DejaVuSans-30" x="127.246094"/>
       <use xlink:href="#DejaVuSans-30" x="190.869141"/>
      </g>
     </g>
    </g>
    <g id="xtick_7">
     <g id="line2d_13">
      <path d="M 381.319274 307.584 
L 381.319274 41.472 
" clip-path="url(#pe63bb57239)" style="fill: none; stroke: #b0b0b0; stroke-width: 0.8; stroke-linecap: square"/>
     </g>
     <g id="line2d_14">
      <g>
       <use xlink:href="#m23ed73d3c9" x="381.319274" y="307.584" style="stroke: #000000; stroke-width: 0.8"/>
      </g>
     </g>
     <g id="text_7">
      <!-- 1200 -->
      <g transform="translate(368.594274 322.182437) scale(0.1 -0.1)">
       <use xlink:href="#DejaVuSans-31"/>
       <use xlink:href="#DejaVuSans-32" x="63.623047"/>
       <use xlink:href="#DejaVuSans-30" x="127.246094"/>
       <use xlink:href="#DejaVuSans-30" x="190.869141"/>
      </g>
     </g>
    </g>
    <g id="text_8">
     <!-- Bucket number -->
     <g transform="translate(197.957656 335.860562) scale(0.1 -0.1)">
      <defs>
       <path id="DejaVuSans-42" d="M 1259 2228 
L 1259 519 
L 2272 519 
Q 2781 519 3026 730 
Q 3272 941 3272 1375 
Q 3272 1813 3026 2020 
Q 2781 2228 2272 2228 
L 1259 2228 
z
M 1259 4147 
L 1259 2741 
L 2194 2741 
Q 2656 2741 2882 2914 
Q 3109 3088 3109 3444 
Q 3109 3797 2882 3972 
Q 2656 4147 2194 4147 
L 1259 4147 
z
M 628 4666 
L 2241 4666 
Q 2963 4666 3353 4366 
Q 3744 4066 3744 3513 
Q 3744 3084 3544 2831 
Q 3344 2578 2956 2516 
Q 3422 2416 3680 2098 
Q 3938 1781 3938 1306 
Q 3938 681 3513 340 
Q 3088 0 2303 0 
L 628 0 
L 628 4666 
z
" transform="scale(0.015625)"/>
       <path id="DejaVuSans-75" d="M 544 1381 
L 544 3500 
L 1119 3500 
L 1119 1403 
Q 1119 906 1312 657 
Q 1506 409 1894 409 
Q 2359 409 2629 706 
Q 2900 1003 2900 1516 
L 2900 3500 
L 3475 3500 
L 3475 0 
L 2900 0 
L 2900 538 
Q 2691 219 2414 64 
Q 2138 -91 1772 -91 
Q 1169 -91 856 284 
Q 544 659 544 1381 
z
M 1991 3584 
L 1991 3584 
z
" transform="scale(0.015625)"/>
       <path id="DejaVuSans-63" d="M 3122 3366 
L 3122 2828 
Q 2878 2963 2633 3030 
Q 2388 3097 2138 3097 
Q 1578 3097 1268 2742 
Q 959 2388 959 1747 
Q 959 1106 1268 751 
Q 1578 397 2138 397 
Q 2388 397 2633 464 
Q 2878 531 3122 666 
L 3122 134 
Q 2881 22 2623 -34 
Q 2366 -91 2075 -91 
Q 1284 -91 818 406 
Q 353 903 353 1747 
Q 353 2603 823 3093 
Q 1294 3584 2113 3584 
Q 2378 3584 2631 3529 
Q 2884 3475 3122 3366 
z
" transform="scale(0.015625)"/>
       <path id="DejaVuSans-6b" d="M 581 4863 
L 1159 4863 
L 1159 1991 
L 2875 3500 
L 3609 3500 
L 1753 1863 
L 3688 0 
L 2938 0 
L 1159 1709 
L 1159 0 
L 581 0 
L 581 4863 
z
" transform="scale(0.015625)"/>
       <path id="DejaVuSans-65" d="M 3597 1894 
L 3597 1613 
L 953 1613 
Q 991 1019 1311 708 
Q 1631 397 2203 397 
Q 2534 397 2845 478 
Q 3156 559 3463 722 
L 3463 178 
Q 3153 47 2828 -22 
Q 2503 -91 2169 -91 
Q 1331 -91 842 396 
Q 353 884 353 1716 
Q 353 2575 817 3079 
Q 1281 3584 2069 3584 
Q 2775 3584 3186 3129 
Q 3597 2675 3597 1894 
z
M 3022 2063 
Q 3016 2534 2758 2815 
Q 2500 3097 2075 3097 
Q 1594 3097 1305 2825 
Q 1016 2553 972 2059 
L 3022 2063 
z
" transform="scale(0.015625)"/>
       <path id="DejaVuSans-74" d="M 1172 4494 
L 1172 3500 
L 2356 3500 
L 2356 3053 
L 1172 3053 
L 1172 1153 
Q 1172 725 1289 603 
Q 1406 481 1766 481 
L 2356 481 
L 2356 0 
L 1766 0 
Q 1100 0 847 248 
Q 594 497 594 1153 
L 594 3053 
L 172 3053 
L 172 3500 
L 594 3500 
L 594 4494 
L 1172 4494 
z
" transform="scale(0.015625)"/>
       <path id="DejaVuSans-20" transform="scale(0.015625)"/>
       <path id="DejaVuSans-6e" d="M 3513 2113 
L 3513 0 
L 2938 0 
L 2938 2094 
Q 2938 2591 2744 2837 
Q 2550 3084 2163 3084 
Q 1697 3084 1428 2787 
Q 1159 2491 1159 1978 
L 1159 0 
L 581 0 
L 581 3500 
L 1159 3500 
L 1159 2956 
Q 1366 3272 1645 3428 
Q 1925 3584 2291 3584 
Q 2894 3584 3203 3211 
Q 3513 2838 3513 2113 
z
" transform="scale(0.015625)"/>
       <path id="DejaVuSans-6d" d="M 3328 2828 
Q 3544 3216 3844 3400 
Q 4144 3584 4550 3584 
Q 5097 3584 5394 3201 
Q 5691 2819 5691 2113 
L 5691 0 
L 5113 0 
L 5113 2094 
Q 5113 2597 4934 2840 
Q 4756 3084 4391 3084 
Q 3944 3084 3684 2787 
Q 3425 2491 3425 1978 
L 3425 0 
L 2847 0 
L 2847 2094 
Q 2847 2600 2669 2842 
Q 2491 3084 2119 3084 
Q 1678 3084 1418 2786 
Q 1159 2488 1159 1978 
L 1159 0 
L 581 0 
L 581 3500 
L 1159 3500 
L 1159 2956 
Q 1356 3278 1631 3431 
Q 1906 3584 2284 3584 
Q 2666 3584 2933 3390 
Q 3200 3197 3328 2828 
z
" transform="scale(0.015625)"/>
       <path id="DejaVuSans-62" d="M 3116 1747 
Q 3116 2381 2855 2742 
Q 2594 3103 2138 3103 
Q 1681 3103 1420 2742 
Q 1159 2381 1159 1747 
Q 1159 1113 1420 752 
Q 1681 391 2138 391 
Q 2594 391 2855 752 
Q 3116 1113 3116 1747 
z
M 1159 2969 
Q 1341 3281 1617 3432 
Q 1894 3584 2278 3584 
Q 2916 3584 3314 3078 
Q 3713 2572 3713 1747 
Q 3713 922 3314 415 
Q 2916 -91 2278 -91 
Q 1894 -91 1617 61 
Q 1341 213 1159 525 
L 1159 0 
L 581 0 
L 581 4863 
L 1159 4863 
L 1159 2969 
z
" transform="scale(0.015625)"/>
       <path id="DejaVuSans-72" d="M 2631 2963 
Q 2534 3019 2420 3045 
Q 2306 3072 2169 3072 
Q 1681 3072 1420 2755 
Q 1159 2438 1159 1844 
L 1159 0 
L 581 0 
L 581 3500 
L 1159 3500 
L 1159 2956 
Q 1341 3275 1631 3429 
Q 1922 3584 2338 3584 
Q 2397 3584 2469 3576 
Q 2541 3569 2628 3553 
L 2631 2963 
z
" transform="scale(0.015625)"/>
      </defs>
      <use xlink:href="#DejaVuSans-42"/>
      <use xlink:href="#DejaVuSans-75" x="68.603516"/>
      <use xlink:href="#DejaVuSans-63" x="131.982422"/>
      <use xlink:href="#DejaVuSans-6b" x="186.962891"/>
      <use xlink:href="#DejaVuSans-65" x="241.248047"/>
      <use xlink:href="#DejaVuSans-74" x="302.771484"/>
      <use xlink:href="#DejaVuSans-20" x="341.980469"/>
      <use xlink:href="#DejaVuSans-6e" x="373.767578"/>
      <use xlink:href="#DejaVuSans-75" x="437.146484"/>
      <use xlink:href="#DejaVuSans-6d" x="500.525391"/>
      <use xlink:href="#DejaVuSans-62" x="597.9375"/>
      <use xlink:href="#DejaVuSans-65" x="661.414062"/>
      <use xlink:href="#DejaVuSans-72" x="722.9375"/>
     </g>
    </g>
   </g>
   <g id="matplotlib.axis_2">
    <g id="ytick_1">
     <g id="line2d_15">
      <path d="M 57.6 307.008 
L 414.72 307.008 
" clip-path="url(#pe63bb57239)" style="fill: none; stroke: #b0b0b0; stroke-width: 0.8; stroke-linecap: square"/>
     </g>
     <g id="line2d_16">
      <defs>
       <path id="m3b91352207" d="M 0 0 
L -3.5 0 
" style="stroke: #000000; stroke-width: 0.8"/>
      </defs>
      <g>
       <use xlink:href="#m3b91352207" x="57.6" y="307.008" style="stroke: #000000; stroke-width: 0.8"/>
      </g>
     </g>
     <g id="text_9">
      <!-- 5 -->
      <g transform="translate(44.2375 310.807219) scale(0.1 -0.1)">
       <defs>
        <path id="DejaVuSans-35" d="M 691 4666 
L 3169 4666 
L 3169 4134 
L 1269 4134 
L 1269 2991 
Q 1406 3038 1543 3061 
Q 1681 3084 1819 3084 
Q 2600 3084 3056 2656 
Q 3513 2228 3513 1497 
Q 3513 744 3044 326 
Q 2575 -91 1722 -91 
Q 1428 -91 1123 -41 
Q 819 9 494 109 
L 494 744 
Q 775 591 1075 516 
Q 1375 441 1709 441 
Q 2250 441 2565 725 
Q 2881 1009 2881 1497 
Q 2881 1984 2565 2268 
Q 2250 2553 1709 2553 
Q 1456 2553 1204 2497 
Q 953 2441 691 2322 
L 691 4666 
z
" transform="scale(0.015625)"/>
       </defs>
       <use xlink:href="#DejaVuSans-35"/>
      </g>
     </g>
    </g>
    <g id="ytick_2">
     <g id="line2d_17">
      <path d="M 57.6 249.408 
L 414.72 249.408 
" clip-path="url(#pe63bb57239)" style="fill: none; stroke: #b0b0b0; stroke-width: 0.8; stroke-linecap: square"/>
     </g>
     <g id="line2d_18">
      <g>
       <use xlink:href="#m3b91352207" x="57.6" y="249.408" style="stroke: #000000; stroke-width: 0.8"/>
      </g>
     </g>
     <g id="text_10">
      <!-- 10 -->
      <g transform="translate(37.875 253.207219) scale(0.1 -0.1)">
       <use xlink:href="#DejaVuSans-31"/>
       <use xlink:href="#DejaVuSans-30" x="63.623047"/>
      </g>
     </g>
    </g>
    <g id="ytick_3">
     <g id="line2d_19">
      <path d="M 57.6 191.808 
L 414.72 191.808 
" clip-path="url(#pe63bb57239)" style="fill: none; stroke: #b0b0b0; stroke-width: 0.8; stroke-linecap: square"/>
     </g>
     <g id="line2d_20">
      <g>
       <use xlink:href="#m3b91352207" x="57.6" y="191.808" style="stroke: #000000; stroke-width: 0.8"/>
      </g>
     </g>
     <g id="text_11">
      <!-- 15 -->
      <g transform="translate(37.875 195.607219) scale(0.1 -0.1)">
       <use xlink:href="#DejaVuSans-31"/>
       <use xlink:href="#DejaVuSans-35" x="63.623047"/>
      </g>
     </g>
    </g>
    <g id="ytick_4">
     <g id="line2d_21">
      <path d="M 57.6 134.208 
L 414.72 134.208 
" clip-path="url(#pe63bb57239)" style="fill: none; stroke: #b0b0b0; stroke-width: 0.8; stroke-linecap: square"/>
     </g>
     <g id="line2d_22">
      <g>
       <use xlink:href="#m3b91352207" x="57.6" y="134.208" style="stroke: #000000; stroke-width: 0.8"/>
      </g>
     </g>
     <g id="text_12">
      <!-- 20 -->
      <g transform="translate(37.875 138.007219) scale(0.1 -0.1)">
       <use xlink:href="#DejaVuSans-32"/>
       <use xlink:href="#DejaVuSans-30" x="63.623047"/>
      </g>
     </g>
    </g>
    <g id="ytick_5">
     <g id="line2d_23">
      <path d="M 57.6 76.608 
L 414.72 76.608 
" clip-path="url(#pe63bb57239)" style="fill: none; stroke: #b0b0b0; stroke-width: 0.8; stroke-linecap: square"/>
     </g>
     <g id="line2d_24">
      <g>
       <use xlink:href="#m3b91352207" x="57.6" y="76.608" style="stroke: #000000; stroke-width: 0.8"/>
      </g>
     </g>
     <g id="text_13">
      <!-- 25 -->
      <g transform="translate(37.875 80.407219) scale(0.1 -0.1)">
       <use xlink:href="#DejaVuSans-32"/>
       <use xlink:href="#DejaVuSans-35" x="63.623047"/>
      </g>
     </g>
    </g>
    <g id="text_14">
     <!-- Bucket size -->
     <g transform="translate(31.795312 202.910812) rotate(-90) scale(0.1 -0.1)">
      <defs>
       <path id="DejaVuSans-73" d="M 2834 3397 
L 2834 2853 
Q 2591 2978 2328 3040 
Q 2066 3103 1784 3103 
Q 1356 3103 1142 2972 
Q 928 2841 928 2578 
Q 928 2378 1081 2264 
Q 1234 2150 1697 2047 
L 1894 2003 
Q 2506 1872 2764 1633 
Q 3022 1394 3022 966 
Q 3022 478 2636 193 
Q 2250 -91 1575 -91 
Q 1294 -91 989 -36 
Q 684 19 347 128 
L 347 722 
Q 666 556 975 473 
Q 1284 391 1588 391 
Q 1994 391 2212 530 
Q 2431 669 2431 922 
Q 2431 1156 2273 1281 
Q 2116 1406 1581 1522 
L 1381 1569 
Q 847 1681 609 1914 
Q 372 2147 372 2553 
Q 372 3047 722 3315 
Q 1072 3584 1716 3584 
Q 2034 3584 2315 3537 
Q 2597 3491 2834 3397 
z
" transform="scale(0.015625)"/>
       <path id="DejaVuSans-69" d="M 603 3500 
L 1178 3500 
L 1178 0 
L 603 0 
L 603 3500 
z
M 603 4863 
L 1178 4863 
L 1178 4134 
L 603 4134 
L 603 4863 
z
" transform="scale(0.015625)"/>
       <path id="DejaVuSans-7a" d="M 353 3500 
L 3084 3500 
L 3084 2975 
L 922 459 
L 3084 459 
L 3084 0 
L 275 0 
L 275 525 
L 2438 3041 
L 353 3041 
L 353 3500 
z
" transform="scale(0.015625)"/>
      </defs>
      <use xlink:href="#DejaVuSans-42"/>
      <use xlink:href="#DejaVuSans-75" x="68.603516"/>
      <use xlink:href="#DejaVuSans-63" x="131.982422"/>
      <use xlink:href="#DejaVuSans-6b" x="186.962891"/>
      <use xlink:href="#DejaVuSans-65" x="241.248047"/>
      <use xlink:href="#DejaVuSans-74" x="302.771484"/>
      <use xlink:href="#DejaVuSans-20" x="341.980469"/>
      <use xlink:href="#DejaVuSans-73" x="373.767578"/>
      <use xlink:href="#DejaVuSans-69" x="425.867188"/>
      <use xlink:href="#DejaVuSans-7a" x="453.650391"/>
      <use xlink:href="#DejaVuSans-65" x="506.140625"/>
     </g>
    </g>
   </g>
   <g id="line2d_25">
    <path d="M 73.832727 180.288 
L 74.088966 157.248 
L 74.345205 180.288 
L 74.601444 65.088 
L 74.857682 214.848 
L 75.37016 168.768 
L 75.626399 214.848 
L 75.882638 180.288 
L 76.138876 191.808 
L 76.395115 168.768 
L 76.651354 134.208 
L 76.907593 226.368 
L 77.163832 214.848 
L 77.42007 122.688 
L 77.676309 203.328 
L 77.932548 168.768 
L 78.188787 157.248 
L 78.445025 272.448 
L 78.957503 111.168 
L 79.213742 226.368 
L 79.469981 203.328 
L 79.726219 226.368 
L 79.982458 134.208 
L 80.238697 283.968 
L 80.494936 191.808 
L 80.751175 237.888 
L 81.263652 214.848 
L 81.519891 157.248 
L 81.77613 191.808 
L 82.032369 145.728 
L 82.288607 180.288 
L 82.544846 168.768 
L 82.801085 145.728 
L 83.057324 191.808 
L 83.313562 122.688 
L 83.569801 180.288 
L 83.82604 168.768 
L 84.082279 122.688 
L 84.594756 249.408 
L 84.850995 237.888 
L 85.619712 134.208 
L 85.87595 145.728 
L 86.132189 214.848 
L 86.388428 203.328 
L 86.644667 226.368 
L 87.157144 203.328 
L 87.413383 237.888 
L 87.669622 214.848 
L 87.925861 168.768 
L 88.182099 168.768 
L 88.438338 272.448 
L 88.694577 272.448 
L 89.207055 168.768 
L 89.463293 180.288 
L 89.719532 203.328 
L 89.975771 180.288 
L 90.23201 283.968 
L 90.488249 168.768 
L 90.744487 180.288 
L 91.000726 145.728 
L 91.256965 203.328 
L 91.513204 180.288 
L 91.769442 180.288 
L 92.025681 237.888 
L 92.28192 203.328 
L 92.538159 191.808 
L 92.794398 226.368 
L 93.050636 237.888 
L 93.306875 226.368 
L 93.563114 168.768 
L 93.819353 168.768 
L 94.075592 214.848 
L 94.33183 191.808 
L 94.588069 214.848 
L 94.844308 203.328 
L 95.100547 214.848 
L 95.356786 134.208 
L 95.869263 214.848 
L 96.125502 203.328 
L 96.381741 180.288 
L 96.637979 134.208 
L 96.894218 260.928 
L 97.150457 122.688 
L 97.406696 191.808 
L 97.662935 191.808 
L 97.919173 226.368 
L 98.175412 226.368 
L 98.431651 237.888 
L 98.68789 99.648 
L 98.944129 191.808 
L 99.200367 214.848 
L 99.456606 145.728 
L 99.712845 203.328 
L 99.969084 203.328 
L 100.225323 157.248 
L 100.481561 203.328 
L 100.7378 134.208 
L 101.250278 214.848 
L 101.506516 180.288 
L 101.762755 226.368 
L 102.018994 191.808 
L 102.275233 180.288 
L 102.531472 180.288 
L 102.78771 203.328 
L 103.043949 237.888 
L 103.300188 157.248 
L 103.812666 180.288 
L 104.068904 180.288 
L 104.325143 214.848 
L 104.581382 191.808 
L 104.837621 203.328 
L 105.09386 145.728 
L 105.350098 122.688 
L 105.606337 180.288 
L 105.862576 168.768 
L 106.118815 214.848 
L 106.375053 191.808 
L 106.631292 214.848 
L 107.14377 237.888 
L 107.656247 76.608 
L 107.912486 191.808 
L 108.424964 191.808 
L 108.681203 272.448 
L 108.937441 180.288 
L 109.19368 249.408 
L 109.449919 226.368 
L 109.706158 134.208 
L 109.962396 180.288 
L 110.218635 191.808 
L 110.474874 249.408 
L 110.731113 249.408 
L 110.987352 180.288 
L 111.24359 237.888 
L 111.499829 145.728 
L 111.756068 214.848 
L 112.012307 214.848 
L 112.268546 168.768 
L 112.781023 191.808 
L 113.037262 180.288 
L 113.293501 157.248 
L 113.54974 203.328 
L 113.805978 214.848 
L 114.062217 249.408 
L 114.318456 203.328 
L 114.574695 111.168 
L 114.830933 237.888 
L 115.087172 180.288 
L 115.59965 180.288 
L 115.855889 122.688 
L 116.112127 214.848 
L 116.368366 157.248 
L 116.624605 203.328 
L 116.880844 226.368 
L 117.137083 226.368 
L 117.393321 99.648 
L 117.64956 191.808 
L 117.905799 168.768 
L 118.162038 157.248 
L 118.418277 260.928 
L 118.674515 214.848 
L 118.930754 226.368 
L 119.186993 203.328 
L 119.443232 226.368 
L 119.69947 168.768 
L 119.955709 168.768 
L 120.211948 226.368 
L 120.468187 249.408 
L 120.724426 180.288 
L 120.980664 191.808 
L 121.236903 99.648 
L 121.493142 111.168 
L 121.749381 249.408 
L 122.00562 260.928 
L 122.261858 191.808 
L 122.774336 191.808 
L 123.030575 203.328 
L 123.286814 157.248 
L 123.543052 226.368 
L 123.799291 134.208 
L 124.05553 180.288 
L 124.311769 203.328 
L 124.568007 134.208 
L 124.824246 180.288 
L 125.080485 203.328 
L 125.336724 203.328 
L 125.849201 145.728 
L 126.10544 226.368 
L 126.361679 260.928 
L 126.617918 191.808 
L 126.874157 168.768 
L 127.130395 191.808 
L 127.386634 122.688 
L 127.642873 226.368 
L 127.899112 203.328 
L 128.155351 168.768 
L 128.411589 237.888 
L 128.667828 180.288 
L 128.924067 180.288 
L 129.180306 237.888 
L 129.436544 203.328 
L 129.692783 226.368 
L 129.949022 180.288 
L 130.205261 191.808 
L 130.4615 180.288 
L 130.717738 214.848 
L 130.973977 145.728 
L 131.230216 134.208 
L 131.486455 237.888 
L 131.998932 191.808 
L 132.255171 226.368 
L 132.51141 134.208 
L 132.767649 237.888 
L 133.023887 65.088 
L 133.280126 111.168 
L 133.536365 260.928 
L 133.792604 214.848 
L 134.048843 191.808 
L 134.305081 237.888 
L 134.56132 111.168 
L 134.817559 203.328 
L 135.330037 180.288 
L 135.586275 249.408 
L 135.842514 214.848 
L 136.098753 249.408 
L 136.354992 214.848 
L 136.611231 203.328 
L 136.867469 226.368 
L 137.123708 203.328 
L 137.379947 191.808 
L 137.636186 134.208 
L 138.148663 260.928 
L 138.404902 272.448 
L 138.661141 203.328 
L 138.91738 191.808 
L 139.173618 226.368 
L 139.429857 122.688 
L 139.942335 203.328 
L 140.198574 168.768 
L 140.454812 237.888 
L 140.711051 237.888 
L 140.96729 168.768 
L 141.223529 237.888 
L 141.479768 203.328 
L 141.736006 191.808 
L 141.992245 272.448 
L 142.248484 134.208 
L 142.504723 191.808 
L 142.760961 203.328 
L 143.0172 249.408 
L 143.273439 111.168 
L 143.529678 237.888 
L 143.785917 168.768 
L 144.042155 168.768 
L 144.298394 226.368 
L 144.554633 203.328 
L 144.810872 134.208 
L 145.323349 180.288 
L 145.579588 180.288 
L 145.835827 191.808 
L 146.092066 180.288 
L 146.348305 134.208 
L 146.604543 191.808 
L 146.860782 157.248 
L 147.117021 214.848 
L 147.37326 226.368 
L 147.629498 122.688 
L 147.885737 214.848 
L 148.141976 134.208 
L 148.398215 237.888 
L 148.654454 168.768 
L 148.910692 214.848 
L 149.166931 157.248 
L 149.42317 180.288 
L 149.679409 180.288 
L 149.935648 214.848 
L 150.448125 145.728 
L 150.960603 191.808 
L 151.216842 180.288 
L 151.47308 157.248 
L 151.729319 226.368 
L 151.985558 157.248 
L 152.241797 214.848 
L 152.754274 157.248 
L 153.010513 226.368 
L 153.266752 226.368 
L 153.522991 260.928 
L 153.779229 237.888 
L 154.035468 157.248 
L 154.291707 180.288 
L 154.547946 191.808 
L 154.804185 226.368 
L 155.060423 226.368 
L 155.316662 203.328 
L 155.572901 191.808 
L 155.82914 203.328 
L 156.085378 134.208 
L 156.597856 260.928 
L 156.854095 145.728 
L 157.110334 237.888 
L 157.366572 134.208 
L 157.622811 145.728 
L 158.135289 226.368 
L 158.391528 203.328 
L 158.647766 214.848 
L 158.904005 203.328 
L 159.160244 214.848 
L 159.416483 180.288 
L 159.672722 191.808 
L 159.92896 122.688 
L 160.185199 145.728 
L 160.441438 122.688 
L 160.953915 260.928 
L 161.722632 157.248 
L 161.978871 226.368 
L 162.235109 249.408 
L 162.491348 168.768 
L 162.747587 191.808 
L 163.003826 168.768 
L 163.260065 249.408 
L 163.516303 180.288 
L 163.772542 157.248 
L 164.028781 226.368 
L 164.28502 214.848 
L 164.541259 260.928 
L 165.053736 88.128 
L 165.309975 122.688 
L 165.566214 260.928 
L 165.822452 157.248 
L 166.078691 203.328 
L 166.33493 157.248 
L 166.591169 88.128 
L 166.847408 88.128 
L 167.103646 168.768 
L 167.616124 191.808 
L 168.128602 53.568 
L 168.38484 203.328 
L 168.641079 191.808 
L 168.897318 283.968 
L 169.153557 191.808 
L 169.409796 272.448 
L 169.922273 157.248 
L 170.178512 168.768 
L 170.434751 203.328 
L 170.690989 180.288 
L 170.947228 214.848 
L 171.203467 214.848 
L 171.459706 122.688 
L 172.228422 226.368 
L 172.484661 134.208 
L 172.7409 157.248 
L 172.997139 191.808 
L 173.253377 145.728 
L 173.509616 157.248 
L 173.765855 134.208 
L 174.022094 203.328 
L 174.278332 226.368 
L 174.79081 226.368 
L 175.047049 157.248 
L 175.303288 214.848 
L 175.559526 168.768 
L 175.815765 191.808 
L 176.072004 111.168 
L 176.328243 168.768 
L 176.584482 88.128 
L 176.84072 76.608 
L 177.096959 237.888 
L 177.353198 168.768 
L 177.609437 180.288 
L 177.865676 157.248 
L 178.121914 226.368 
L 178.378153 214.848 
L 178.634392 237.888 
L 178.890631 88.128 
L 179.403108 214.848 
L 179.659347 157.248 
L 179.915586 203.328 
L 180.171825 203.328 
L 180.428063 214.848 
L 180.684302 145.728 
L 180.940541 203.328 
L 181.19678 203.328 
L 181.453019 260.928 
L 181.709257 122.688 
L 182.221735 214.848 
L 182.477974 168.768 
L 182.734213 168.768 
L 182.990451 145.728 
L 183.502929 168.768 
L 183.759168 168.768 
L 184.271645 260.928 
L 184.527884 249.408 
L 185.2966 145.728 
L 185.552839 226.368 
L 185.809078 180.288 
L 186.065317 237.888 
L 186.321556 191.808 
L 186.577794 191.808 
L 186.834033 122.688 
L 187.090272 134.208 
L 187.346511 249.408 
L 187.60275 249.408 
L 187.858988 203.328 
L 188.115227 237.888 
L 188.371466 226.368 
L 189.140182 122.688 
L 189.396421 180.288 
L 189.65266 180.288 
L 190.165137 203.328 
L 190.421376 191.808 
L 190.677615 134.208 
L 191.190093 214.848 
L 191.446331 191.808 
L 191.70257 237.888 
L 191.958809 226.368 
L 192.215048 191.808 
L 192.471287 134.208 
L 192.727525 260.928 
L 192.983764 249.408 
L 193.496242 157.248 
L 193.75248 180.288 
L 194.264958 249.408 
L 194.521197 168.768 
L 194.777436 214.848 
L 195.033674 168.768 
L 195.546152 226.368 
L 195.802391 249.408 
L 196.314868 145.728 
L 196.571107 249.408 
L 197.083585 145.728 
L 197.339823 168.768 
L 197.596062 295.488 
L 197.852301 214.848 
L 198.10854 283.968 
L 198.364779 145.728 
L 198.621017 180.288 
L 198.877256 145.728 
L 199.133495 237.888 
L 199.389734 249.408 
L 199.645973 237.888 
L 199.902211 191.808 
L 200.15845 272.448 
L 200.414689 260.928 
L 200.670928 157.248 
L 200.927167 249.408 
L 201.183405 180.288 
L 201.439644 237.888 
L 201.695883 111.168 
L 201.952122 145.728 
L 202.20836 237.888 
L 202.464599 203.328 
L 202.720838 134.208 
L 202.977077 214.848 
L 203.233316 157.248 
L 203.745793 180.288 
L 204.002032 180.288 
L 204.258271 191.808 
L 204.51451 168.768 
L 204.770748 226.368 
L 205.026987 214.848 
L 205.539465 134.208 
L 205.795704 191.808 
L 206.051942 145.728 
L 206.308181 145.728 
L 206.56442 249.408 
L 206.820659 272.448 
L 207.076897 249.408 
L 207.333136 249.408 
L 207.589375 134.208 
L 207.845614 237.888 
L 208.101853 237.888 
L 208.358091 145.728 
L 208.61433 111.168 
L 208.870569 168.768 
L 209.126808 191.808 
L 209.383047 99.648 
L 209.895524 295.488 
L 210.151763 180.288 
L 210.408002 180.288 
L 210.664241 260.928 
L 210.920479 283.968 
L 211.176718 134.208 
L 211.432957 237.888 
L 211.689196 260.928 
L 211.945434 99.648 
L 212.201673 203.328 
L 212.457912 168.768 
L 212.714151 203.328 
L 212.97039 214.848 
L 213.226628 168.768 
L 213.482867 214.848 
L 213.739106 168.768 
L 214.251584 249.408 
L 214.507822 226.368 
L 214.764061 157.248 
L 215.0203 157.248 
L 215.276539 180.288 
L 215.532777 157.248 
L 215.789016 203.328 
L 216.045255 157.248 
L 216.301494 226.368 
L 216.557733 249.408 
L 217.07021 145.728 
L 217.326449 214.848 
L 217.582688 203.328 
L 217.838927 145.728 
L 218.095165 226.368 
L 218.351404 191.808 
L 218.607643 272.448 
L 218.863882 168.768 
L 219.120121 249.408 
L 219.376359 237.888 
L 219.632598 214.848 
L 219.888837 260.928 
L 220.145076 249.408 
L 220.401314 180.288 
L 220.657553 283.968 
L 220.913792 272.448 
L 221.42627 145.728 
L 221.682508 203.328 
L 221.938747 226.368 
L 222.194986 226.368 
L 222.451225 214.848 
L 222.707464 157.248 
L 222.963702 260.928 
L 223.47618 111.168 
L 223.732419 272.448 
L 223.988658 226.368 
L 224.757374 191.808 
L 225.013613 283.968 
L 225.52609 180.288 
L 225.782329 237.888 
L 226.038568 237.888 
L 226.294807 226.368 
L 226.551045 191.808 
L 226.807284 226.368 
L 227.063523 191.808 
L 227.319762 226.368 
L 227.576001 168.768 
L 228.088478 191.808 
L 228.600956 249.408 
L 228.857195 214.848 
L 229.113433 249.408 
L 229.369672 168.768 
L 229.625911 237.888 
L 230.138388 157.248 
L 230.394627 214.848 
L 230.907105 260.928 
L 231.163344 214.848 
L 231.419582 134.208 
L 231.675821 134.208 
L 231.93206 203.328 
L 232.188299 145.728 
L 232.444538 180.288 
L 232.700776 249.408 
L 232.957015 226.368 
L 233.213254 237.888 
L 233.469493 226.368 
L 233.725732 191.808 
L 233.98197 203.328 
L 234.238209 180.288 
L 234.494448 214.848 
L 234.750687 180.288 
L 235.006925 180.288 
L 235.519403 272.448 
L 235.775642 134.208 
L 236.031881 214.848 
L 236.288119 134.208 
L 236.544358 134.208 
L 236.800597 214.848 
L 237.056836 180.288 
L 237.313075 191.808 
L 237.569313 191.808 
L 237.825552 214.848 
L 238.081791 203.328 
L 238.33803 237.888 
L 238.850507 191.808 
L 239.106746 180.288 
L 239.362985 237.888 
L 239.619224 168.768 
L 239.875462 168.768 
L 240.131701 157.248 
L 240.38794 249.408 
L 240.644179 157.248 
L 240.900418 191.808 
L 241.412895 191.808 
L 241.669134 203.328 
L 241.925373 203.328 
L 242.181612 226.368 
L 242.43785 145.728 
L 242.694089 260.928 
L 242.950328 191.808 
L 243.206567 168.768 
L 243.462805 134.208 
L 243.975283 226.368 
L 244.231522 168.768 
L 244.487761 180.288 
L 244.743999 99.648 
L 245.000238 249.408 
L 245.256477 237.888 
L 245.512716 145.728 
L 245.768955 214.848 
L 246.025193 134.208 
L 246.281432 237.888 
L 246.537671 214.848 
L 246.79391 157.248 
L 247.050149 214.848 
L 247.306387 191.808 
L 247.562626 203.328 
L 247.818865 168.768 
L 248.075104 214.848 
L 248.331342 168.768 
L 248.587581 226.368 
L 248.84382 191.808 
L 249.100059 134.208 
L 249.356298 249.408 
L 249.612536 226.368 
L 249.868775 191.808 
L 250.125014 214.848 
L 250.381253 203.328 
L 250.89373 226.368 
L 251.149969 157.248 
L 251.406208 122.688 
L 251.662447 226.368 
L 251.918686 249.408 
L 252.174924 168.768 
L 252.431163 226.368 
L 252.943641 122.688 
L 253.199879 168.768 
L 253.456118 191.808 
L 253.712357 180.288 
L 253.968596 237.888 
L 254.224835 191.808 
L 254.481073 180.288 
L 254.737312 203.328 
L 254.993551 214.848 
L 255.24979 145.728 
L 255.506029 203.328 
L 255.762267 122.688 
L 256.018506 180.288 
L 256.274745 203.328 
L 256.530984 180.288 
L 257.043461 237.888 
L 257.2997 157.248 
L 257.555939 180.288 
L 257.812178 145.728 
L 258.068416 214.848 
L 258.324655 214.848 
L 258.580894 272.448 
L 258.837133 168.768 
L 259.093372 295.488 
L 259.34961 111.168 
L 259.605849 191.808 
L 259.862088 168.768 
L 260.118327 157.248 
L 260.374566 99.648 
L 260.887043 237.888 
L 261.143282 145.728 
L 261.399521 99.648 
L 261.655759 214.848 
L 261.911998 157.248 
L 262.168237 180.288 
L 262.424476 134.208 
L 262.680715 214.848 
L 262.936953 145.728 
L 263.193192 226.368 
L 263.449431 237.888 
L 263.70567 283.968 
L 263.961909 191.808 
L 264.218147 157.248 
L 264.474386 180.288 
L 264.730625 180.288 
L 264.986864 203.328 
L 265.243103 260.928 
L 265.75558 111.168 
L 266.011819 237.888 
L 266.268058 203.328 
L 266.524296 191.808 
L 266.780535 191.808 
L 267.036774 237.888 
L 267.549252 191.808 
L 267.80549 203.328 
L 268.061729 180.288 
L 268.574207 249.408 
L 268.830446 168.768 
L 269.086684 249.408 
L 269.342923 214.848 
L 269.599162 214.848 
L 269.855401 134.208 
L 270.11164 157.248 
L 270.367878 203.328 
L 270.624117 145.728 
L 270.880356 134.208 
L 271.136595 134.208 
L 271.392833 157.248 
L 271.649072 260.928 
L 272.16155 168.768 
L 272.417789 237.888 
L 272.674027 134.208 
L 272.930266 122.688 
L 273.186505 214.848 
L 273.442744 180.288 
L 273.698983 237.888 
L 273.955221 157.248 
L 274.21146 260.928 
L 274.467699 157.248 
L 274.723938 226.368 
L 274.980177 168.768 
L 275.236415 157.248 
L 275.492654 203.328 
L 275.748893 226.368 
L 276.005132 180.288 
L 276.26137 237.888 
L 276.517609 168.768 
L 276.773848 180.288 
L 277.030087 168.768 
L 277.286326 145.728 
L 277.542564 191.808 
L 277.798803 168.768 
L 278.055042 122.688 
L 278.311281 226.368 
L 278.56752 226.368 
L 278.823758 134.208 
L 279.079997 180.288 
L 279.336236 180.288 
L 279.592475 157.248 
L 279.848713 122.688 
L 280.104952 203.328 
L 280.361191 203.328 
L 280.61743 260.928 
L 280.873669 272.448 
L 281.129907 226.368 
L 281.386146 272.448 
L 281.642385 134.208 
L 281.898624 180.288 
L 282.154863 157.248 
L 282.411101 180.288 
L 282.66734 237.888 
L 282.923579 237.888 
L 283.179818 157.248 
L 283.692295 180.288 
L 284.204773 180.288 
L 284.71725 226.368 
L 284.973489 76.608 
L 285.229728 272.448 
L 285.485967 134.208 
L 285.742206 157.248 
L 285.998444 214.848 
L 286.254683 203.328 
L 286.510922 168.768 
L 286.767161 180.288 
L 287.0234 145.728 
L 287.279638 237.888 
L 287.535877 237.888 
L 287.792116 214.848 
L 288.048355 157.248 
L 288.304594 180.288 
L 288.560832 157.248 
L 288.817071 226.368 
L 289.07331 203.328 
L 289.329549 134.208 
L 289.585787 203.328 
L 289.842026 168.768 
L 290.098265 249.408 
L 290.354504 134.208 
L 290.610743 157.248 
L 290.866981 260.928 
L 291.12322 122.688 
L 291.635698 191.808 
L 291.891937 99.648 
L 292.148175 237.888 
L 292.660653 134.208 
L 292.916892 134.208 
L 293.429369 226.368 
L 293.941847 88.128 
L 294.198086 237.888 
L 294.710563 122.688 
L 294.966802 283.968 
L 295.223041 191.808 
L 295.47928 168.768 
L 295.735518 237.888 
L 295.991757 203.328 
L 296.247996 191.808 
L 296.504235 145.728 
L 296.760474 191.808 
L 297.016712 260.928 
L 297.272951 272.448 
L 297.52919 168.768 
L 297.785429 214.848 
L 298.041668 145.728 
L 298.297906 249.408 
L 298.554145 237.888 
L 298.810384 180.288 
L 299.066623 168.768 
L 299.322861 111.168 
L 299.5791 134.208 
L 299.835339 237.888 
L 300.091578 226.368 
L 300.604055 272.448 
L 300.860294 191.808 
L 301.116533 180.288 
L 301.372772 249.408 
L 301.629011 180.288 
L 301.885249 191.808 
L 302.141488 260.928 
L 302.397727 134.208 
L 302.653966 214.848 
L 302.910204 134.208 
L 303.166443 203.328 
L 303.422682 237.888 
L 303.93516 214.848 
L 304.191398 157.248 
L 304.447637 214.848 
L 304.703876 122.688 
L 304.960115 157.248 
L 305.216354 145.728 
L 305.472592 168.768 
L 305.728831 99.648 
L 305.98507 191.808 
L 306.241309 191.808 
L 306.497548 272.448 
L 306.753786 99.648 
L 307.010025 249.408 
L 307.266264 180.288 
L 307.522503 191.808 
L 307.778741 191.808 
L 308.03498 214.848 
L 308.291219 226.368 
L 308.547458 180.288 
L 308.803697 249.408 
L 309.059935 111.168 
L 309.316174 226.368 
L 309.572413 237.888 
L 310.341129 134.208 
L 310.597368 226.368 
L 310.853607 237.888 
L 311.109846 88.128 
L 311.366085 168.768 
L 311.878562 214.848 
L 312.134801 249.408 
L 312.647278 76.608 
L 312.903517 157.248 
L 313.159756 145.728 
L 313.415995 226.368 
L 313.672234 145.728 
L 313.928472 191.808 
L 314.184711 53.568 
L 314.44095 249.408 
L 314.697189 180.288 
L 314.953428 249.408 
L 315.465905 111.168 
L 315.722144 237.888 
L 315.978383 168.768 
L 316.234622 203.328 
L 316.49086 203.328 
L 316.747099 180.288 
L 317.003338 122.688 
L 317.259577 145.728 
L 317.515815 203.328 
L 318.284532 134.208 
L 318.540771 226.368 
L 318.797009 99.648 
L 319.053248 272.448 
L 319.309487 226.368 
L 319.565726 157.248 
L 319.821965 203.328 
L 320.078203 203.328 
L 320.334442 214.848 
L 320.590681 214.848 
L 321.103158 168.768 
L 321.359397 226.368 
L 321.615636 180.288 
L 321.871875 191.808 
L 322.128114 226.368 
L 322.384352 237.888 
L 322.640591 237.888 
L 322.89683 122.688 
L 323.409308 237.888 
L 323.665546 249.408 
L 323.921785 203.328 
L 324.178024 191.808 
L 324.434263 226.368 
L 324.690502 203.328 
L 324.94674 157.248 
L 325.202979 191.808 
L 325.459218 191.808 
L 325.715457 180.288 
L 325.971695 237.888 
L 326.227934 191.808 
L 326.484173 122.688 
L 326.996651 272.448 
L 327.252889 249.408 
L 327.509128 203.328 
L 327.765367 191.808 
L 328.021606 168.768 
L 328.277845 203.328 
L 328.534083 122.688 
L 328.790322 168.768 
L 329.046561 145.728 
L 329.3028 191.808 
L 329.559039 145.728 
L 329.815277 168.768 
L 330.071516 53.568 
L 330.327755 260.928 
L 330.583994 157.248 
L 330.840232 168.768 
L 331.096471 226.368 
L 331.35271 203.328 
L 331.608949 237.888 
L 331.865188 191.808 
L 332.121426 122.688 
L 332.377665 214.848 
L 332.633904 226.368 
L 332.890143 260.928 
L 333.146382 191.808 
L 333.40262 191.808 
L 333.658859 180.288 
L 333.915098 145.728 
L 334.171337 168.768 
L 334.427576 237.888 
L 334.683814 272.448 
L 334.940053 180.288 
L 335.196292 203.328 
L 335.452531 145.728 
L 335.708769 191.808 
L 335.965008 88.128 
L 336.477486 214.848 
L 336.733725 99.648 
L 336.989963 249.408 
L 337.246202 226.368 
L 337.502441 180.288 
L 337.75868 157.248 
L 338.014919 191.808 
L 338.271157 283.968 
L 338.527396 237.888 
L 338.783635 272.448 
L 339.039874 191.808 
L 339.296113 260.928 
L 339.80859 134.208 
L 340.064829 249.408 
L 340.321068 122.688 
L 340.577306 134.208 
L 341.089784 134.208 
L 341.346023 203.328 
L 341.602262 145.728 
L 341.8585 168.768 
L 342.114739 180.288 
L 342.370978 237.888 
L 342.627217 122.688 
L 342.883456 191.808 
L 343.139694 145.728 
L 343.652172 237.888 
L 343.908411 157.248 
L 344.164649 226.368 
L 344.420888 168.768 
L 344.677127 203.328 
L 344.933366 157.248 
L 345.189605 237.888 
L 345.702082 157.248 
L 345.958321 203.328 
L 346.21456 157.248 
L 346.470799 134.208 
L 346.727037 249.408 
L 346.983276 145.728 
L 347.239515 157.248 
L 347.495754 214.848 
L 347.751993 180.288 
L 348.008231 203.328 
L 348.26447 214.848 
L 348.520709 203.328 
L 348.776948 214.848 
L 349.033186 191.808 
L 349.289425 145.728 
L 349.545664 157.248 
L 349.801903 180.288 
L 350.058142 157.248 
L 350.31438 157.248 
L 350.570619 191.808 
L 350.826858 157.248 
L 351.083097 180.288 
L 351.339336 226.368 
L 351.595574 145.728 
L 351.851813 145.728 
L 352.108052 203.328 
L 352.364291 226.368 
L 352.62053 226.368 
L 352.876768 237.888 
L 353.133007 237.888 
L 353.389246 226.368 
L 353.645485 180.288 
L 353.901723 203.328 
L 354.157962 99.648 
L 354.414201 134.208 
L 354.67044 203.328 
L 354.926679 168.768 
L 355.182917 260.928 
L 355.439156 249.408 
L 355.695395 76.608 
L 355.951634 180.288 
L 356.207873 214.848 
L 356.464111 214.848 
L 356.72035 168.768 
L 356.976589 249.408 
L 357.232828 203.328 
L 357.489067 180.288 
L 357.745305 168.768 
L 358.001544 260.928 
L 358.257783 157.248 
L 358.514022 157.248 
L 358.77026 260.928 
L 359.026499 249.408 
L 359.282738 226.368 
L 359.538977 157.248 
L 359.795216 191.808 
L 360.307693 168.768 
L 360.563932 214.848 
L 361.07641 65.088 
L 361.332648 203.328 
L 361.845126 226.368 
L 362.101365 249.408 
L 362.870081 157.248 
L 363.12632 214.848 
L 363.382559 237.888 
L 363.638797 249.408 
L 363.895036 191.808 
L 364.151275 191.808 
L 364.407514 145.728 
L 364.663753 191.808 
L 364.919991 145.728 
L 365.17623 237.888 
L 365.432469 226.368 
L 365.688708 226.368 
L 365.944947 237.888 
L 366.201185 168.768 
L 366.457424 226.368 
L 366.713663 203.328 
L 366.969902 145.728 
L 367.22614 180.288 
L 367.482379 157.248 
L 367.738618 191.808 
L 367.994857 180.288 
L 368.251096 180.288 
L 368.507334 134.208 
L 368.763573 180.288 
L 369.019812 180.288 
L 369.276051 145.728 
L 369.53229 237.888 
L 369.788528 249.408 
L 370.044767 122.688 
L 370.301006 157.248 
L 370.813484 260.928 
L 371.325961 157.248 
L 371.5822 191.808 
L 371.838439 260.928 
L 372.094677 168.768 
L 372.350916 214.848 
L 372.607155 180.288 
L 372.863394 203.328 
L 373.119633 145.728 
L 373.63211 237.888 
L 373.888349 180.288 
L 374.144588 237.888 
L 374.400827 168.768 
L 374.657065 191.808 
L 374.913304 237.888 
L 375.425782 237.888 
L 375.682021 214.848 
L 375.938259 226.368 
L 376.194498 122.688 
L 376.450737 226.368 
L 376.963214 203.328 
L 377.219453 226.368 
L 377.475692 214.848 
L 377.731931 214.848 
L 377.98817 134.208 
L 378.500647 191.808 
L 378.756886 134.208 
L 379.013125 203.328 
L 379.269364 180.288 
L 379.525602 134.208 
L 379.781841 191.808 
L 380.294319 237.888 
L 380.550558 249.408 
L 380.806796 214.848 
L 381.063035 145.728 
L 381.319274 203.328 
L 381.575513 203.328 
L 381.831751 168.768 
L 382.08799 157.248 
L 382.344229 122.688 
L 382.600468 180.288 
L 382.856707 99.648 
L 383.112945 214.848 
L 383.369184 145.728 
L 383.625423 145.728 
L 383.881662 157.248 
L 384.137901 191.808 
L 384.394139 283.968 
L 384.650378 168.768 
L 384.906617 122.688 
L 385.162856 191.808 
L 385.419094 157.248 
L 385.675333 214.848 
L 385.931572 111.168 
L 386.187811 168.768 
L 386.44405 180.288 
L 386.700288 214.848 
L 386.956527 157.248 
L 387.212766 157.248 
L 387.469005 214.848 
L 387.725244 191.808 
L 387.981482 214.848 
L 388.237721 249.408 
L 388.49396 122.688 
L 388.750199 191.808 
L 389.006438 180.288 
L 389.262676 237.888 
L 389.518915 237.888 
L 389.775154 180.288 
L 390.031393 180.288 
L 390.287631 134.208 
L 390.54387 214.848 
L 390.800109 249.408 
L 391.056348 134.208 
L 391.312587 168.768 
L 391.568825 180.288 
L 391.825064 237.888 
L 392.081303 157.248 
L 392.337542 249.408 
L 392.593781 226.368 
L 392.850019 272.448 
L 393.106258 157.248 
L 393.362497 203.328 
L 393.618736 134.208 
L 393.874975 157.248 
L 394.131213 226.368 
L 394.387452 157.248 
L 394.643691 191.808 
L 394.89993 249.408 
L 395.156168 237.888 
L 395.412407 272.448 
L 395.668646 180.288 
L 395.924885 191.808 
L 396.181124 53.568 
L 396.437362 191.808 
L 396.693601 249.408 
L 396.94984 226.368 
L 397.206079 111.168 
L 397.718556 203.328 
L 397.974795 191.808 
L 398.231034 249.408 
L 398.487273 168.768 
L 398.487273 168.768 
" clip-path="url(#pe63bb57239)" style="fill: none; stroke: #0000ff; stroke-width: 1.5; stroke-linecap: square"/>
   </g>
   <g id="patch_3">
    <path d="M 57.6 307.584 
L 57.6 41.472 
" style="fill: none; stroke: #000000; stroke-width: 0.8; stroke-linejoin: miter; stroke-linecap: square"/>
   </g>
   <g id="patch_4">
    <path d="M 414.72 307.584 
L 414.72 41.472 
" style="fill: none; stroke: #000000; stroke-width: 0.8; stroke-linejoin: miter; stroke-linecap: square"/>
   </g>
   <g id="patch_5">
    <path d="M 57.6 307.584 
L 414.72 307.584 
" style="fill: none; stroke: #000000; stroke-width: 0.8; stroke-linejoin: miter; stroke-linecap: square"/>
   </g>
   <g id="patch_6">
    <path d="M 57.6 41.472 
L 414.72 41.472 
" style="fill: none; stroke: #000000; stroke-width: 0.8; stroke-linejoin: miter; stroke-linecap: square"/>
   </g>
   <g id="text_15">
    <!-- Buckets dump -->
    <g transform="translate(193.343437 35.472) scale(0.12 -0.12)">
     <defs>
      <path id="DejaVuSans-64" d="M 2906 2969 
L 2906 4863 
L 3481 4863 
L 3481 0 
L 2906 0 
L 2906 525 
Q 2725 213 2448 61 
Q 2172 -91 1784 -91 
Q 1150 -91 751 415 
Q 353 922 353 1747 
Q 353 2572 751 3078 
Q 1150 3584 1784 3584 
Q 2172 3584 2448 3432 
Q 2725 3281 2906 2969 
z
M 947 1747 
Q 947 1113 1208 752 
Q 1469 391 1925 391 
Q 2381 391 2643 752 
Q 2906 1113 2906 1747 
Q 2906 2381 2643 2742 
Q 2381 3103 1925 3103 
Q 1469 3103 1208 2742 
Q 947 2381 947 1747 
z
" transform="scale(0.015625)"/>
      <path id="DejaVuSans-70" d="M 1159 525 
L 1159 -1331 
L 581 -1331 
L 581 3500 
L 1159 3500 
L 1159 2969 
Q 1341 3281 1617 3432 
Q 1894 3584 2278 3584 
Q 2916 3584 3314 3078 
Q 3713 2572 3713 1747 
Q 3713 922 3314 415 
Q 2916 -91 2278 -91 
Q 1894 -91 1617 61 
Q 1341 213 1159 525 
z
M 3116 1747 
Q 3116 2381 2855 2742 
Q 2594 3103 2138 3103 
Q 1681 3103 1420 2742 
Q 1159 2381 1159 1747 
Q 1159 1113 1420 752 
Q 1681 391 2138 391 
Q 2594 391 2855 752 
Q 3116 1113 3116 1747 
z
" transform="scale(0.015625)"/>
     </defs>
     <use xlink:href="#DejaVuSans-42"/>
     <use xlink:href="#DejaVuSans-75" x="68.603516"/>
     <use xlink:href="#DejaVuSans-63" x="131.982422"/>
     <use xlink:href="#DejaVuSans-6b" x="186.962891"/>
     <use xlink:href="#DejaVuSans-65" x="241.248047"/>
     <use xlink:href="#DejaVuSans-74" x="302.771484"/>
     <use xlink:href="#DejaVuSans-73" x="341.980469"/>
     <use xlink:href="#DejaVuSans-20" x="394.080078"/>
     <use xlink:href="#DejaVuSans-64" x="425.867188"/>
     <use xlink:href="#DejaVuSans-75" x="489.34375"/>
     <use xlink:href="#DejaVuSans-6d" x="552.722656"/>
     <use xlink:href="#DejaVuSans-70" x="650.134766"/>
    </g>
   </g>
   <g id="legend_1">
    <g id="patch_7">
     <path d="M 64.6 64.150125 
L 120.476562 64.150125 
Q 122.476562 64.150125 122.476562 62.150125 
L 122.476562 48.472 
Q 122.476562 46.472 120.476562 46.472 
L 64.6 46.472 
Q 62.6 46.472 62.6 48.472 
L 62.6 62.150125 
Q 62.6 64.150125 64.6 64.150125 
z
" style="fill: #ffffff; opacity: 0.8; stroke: #cccccc; stroke-linejoin: miter"/>
    </g>
    <g id="line2d_26">
     <path d="M 66.6 54.570438 
L 76.6 54.570438 
L 86.6 54.570438 
" style="fill: none; stroke: #0000ff; stroke-width: 1.5; stroke-linecap: square"/>
    </g>
    <g id="text_16">
     <!-- Data -->
     <g transform="translate(94.6 58.070438) scale(0.1 -0.1)">
      <defs>
       <path id="DejaVuSans-44" d="M 1259 4147 
L 1259 519 
L 2022 519 
Q 2988 519 3436 956 
Q 3884 1394 3884 2338 
Q 3884 3275 3436 3711 
Q 2988 4147 2022 4147 
L 1259 4147 
z
M 628 4666 
L 1925 4666 
Q 3281 4666 3915 4102 
Q 4550 3538 4550 2338 
Q 4550 1131 3912 565 
Q 3275 0 1925 0 
L 628 0 
L 628 4666 
z
" transform="scale(0.015625)"/>
       <path id="DejaVuSans-61" d="M 2194 1759 
Q 1497 1759 1228 1600 
Q 959 1441 959 1056 
Q 959 750 1161 570 
Q 1363 391 1709 391 
Q 2188 391 2477 730 
Q 2766 1069 2766 1631 
L 2766 1759 
L 2194 1759 
z
M 3341 1997 
L 3341 0 
L 2766 0 
L 2766 531 
Q 2569 213 2275 61 
Q 1981 -91 1556 -91 
Q 1019 -91 701 211 
Q 384 513 384 1019 
Q 384 1609 779 1909 
Q 1175 2209 1959 2209 
L 2766 2209 
L 2766 2266 
Q 2766 2663 2505 2880 
Q 2244 3097 1772 3097 
Q 1472 3097 1187 3025 
Q 903 2953 641 2809 
L 641 3341 
Q 956 3463 1253 3523 
Q 1550 3584 1831 3584 
Q 2591 3584 2966 3190 
Q 3341 2797 3341 1997 
z
" transform="scale(0.015625)"/>
      </defs>
      <use xlink:href="#DejaVuSans-44"/>
      <use xlink:href="#DejaVuSans-61" x="77.001953"/>
      <use xlink:href="#DejaVuSans-74" x="138.28125"/>
      <use xlink:href="#DejaVuSans-61" x="177.490234"/>
     </g>
    </g>
   </g>
  </g>
 </g>
 <defs>
  <clipPath id="pe63bb57239">
   <rect x="57.6" y="41.472" width="357.12" height="266.112"/>
  </clipPath>
 </defs>
</svg>
